<?xml version="1.0" encoding="utf-8"?>
<!-- Generator: Adobe Illustrator 22.1.0, SVG Export Plug-In . SVG Version: 6.00 Build 0)  -->
<svg version="1.1" id="Layer_1" xmlns="http://www.w3.org/2000/svg" xmlns:xlink="http://www.w3.org/1999/xlink" x="0px" y="0px"
	 viewBox="0 0 50 45" style="enable-background:new 0 0 50 45;" xml:space="preserve">
<style type="text/css">
	.st0{fill:#3C92CA;}
</style>
<ellipse class="st0" cx="10.49" cy="7.87" rx="5.88" ry="3.07"/>
<path id="Forma_1" d="M5.48,10.73c3.33,1.27,7.02,1.27,10.35,0c2.28-1,2.62-2.35,2.62-3.07s-0.33-2.07-2.62-3.07
	c-3.33-1.27-7.02-1.27-10.35,0c-2.28,1-2.61,2.35-2.61,3.07S3.2,9.73,5.48,10.73z M10.66,5.81c3.42,0,5.6,1.21,5.6,1.85
	s-2.18,1.85-5.6,1.85s-5.6-1.21-5.6-1.85S7.24,5.81,10.66,5.81z M17.58,12.99c0.43,0.41,0.45,1.1,0.04,1.53c0,0-0.01,0.01-0.01,0.01
	c-1.27,1.3-3.94,2.11-6.95,2.11s-5.68-0.81-6.95-2.11C3.29,14.1,3.3,13.42,3.73,13c0,0,0,0,0.01-0.01c0.43-0.42,1.12-0.4,1.54,0.02
	c0.68,0.7,2.66,1.45,5.38,1.45s4.69-0.75,5.38-1.45C16.46,12.58,17.15,12.57,17.58,12.99z M18.58,24.45h1.23
	c0.6,0,1.09,0.49,1.09,1.09c0,0.6-0.49,1.09-1.09,1.09l0,0h-1.23c-0.6,0-1.09-0.48-1.09-1.08c0-0.6,0.48-1.09,1.08-1.09
	C18.58,24.45,18.58,24.45,18.58,24.45L18.58,24.45z M21.06,8.1C21,7.96,20.98,7.81,20.98,7.66c-0.01-0.26,0.08-0.51,0.24-0.71
	c0.27-0.34,0.58-0.73,0.88-1.09c0.27-0.32,0.51-0.61,0.73-0.88c0.18-0.22,0.35-0.41,0.51-0.6c0.38-0.47,1.07-0.54,1.54-0.15
	c0.47,0.38,0.54,1.07,0.15,1.54l0,0c-0.16,0.19-0.33,0.39-0.51,0.61c-0.06,0.07-0.12,0.15-0.19,0.23h4.87
	c0.6-0.02,1.1,0.46,1.12,1.06c0.02,0.6-0.46,1.1-1.06,1.12c-0.02,0-0.04,0-0.06,0h-4.81c0.04,0.06,0.09,0.11,0.14,0.16
	c0.18,0.22,0.35,0.42,0.51,0.6c0.38,0.46,0.31,1.15-0.15,1.53c0,0,0,0,0,0c-0.46,0.38-1.15,0.32-1.54-0.15
	c-0.15-0.18-0.32-0.38-0.5-0.59c-0.22-0.27-0.47-0.56-0.74-0.88c-0.28-0.33-0.57-0.69-0.87-1.08c-0.07-0.08-0.12-0.17-0.16-0.27l0,0
	l0,0l0,0l0,0l0,0h-0.01l0,0l0,0l0,0l0,0l0,0l0,0L21.06,8.1z M9.05,32c0,0.6-0.49,1.09-1.09,1.09c0,0,0,0,0,0H5.46
	c-0.6,0.02-1.1-0.46-1.12-1.06c-0.02-0.6,0.46-1.1,1.06-1.12c0.02,0,0.04,0,0.06,0h2.49C8.56,30.91,9.05,31.4,9.05,32z M40.47,34.52
	c0.01,0.61-0.48,1.1-1.09,1.11c-0.61,0.01-1.1-0.48-1.11-1.09c-0.01-0.61,0.48-1.1,1.09-1.11c0,0,0.01,0,0.01,0l0,0
	C39.97,33.43,40.46,33.92,40.47,34.52C40.47,34.52,40.47,34.52,40.47,34.52z M9.05,28.1c0,0.6-0.49,1.09-1.09,1.09c0,0,0,0,0,0H2.38
	c-0.6,0.02-1.1-0.46-1.12-1.06c-0.02-0.6,0.46-1.1,1.06-1.12c0.02,0,0.04,0,0.06,0h5.57C8.56,27.01,9.05,27.49,9.05,28.1
	C9.05,28.1,9.05,28.1,9.05,28.1L9.05,28.1z M30.71,33.44h-6.32c-0.62-2.79-3.38-4.54-6.17-3.92c-1.82,0.41-3.27,1.76-3.82,3.53
	c-0.07-0.06-0.12-0.14-0.16-0.22c-0.04-0.08-0.07-0.17-0.07-0.26v-7.25c-0.02-0.6-0.52-1.08-1.12-1.06
	c-0.58,0.02-1.05,0.48-1.06,1.06v7.25c0,0.43,0.1,0.85,0.29,1.23c0.42,0.79,1.13,1.38,1.99,1.63c0.52,2.81,3.22,4.66,6.03,4.14
	c2.04-0.38,3.65-1.94,4.1-3.96h6.32c0.6,0.07,1.14-0.36,1.21-0.96c0.07-0.6-0.35-1.14-0.95-1.21C30.88,33.43,30.8,33.43,30.71,33.44
	L30.71,33.44z M19.35,37.48c-1.63,0-2.96-1.31-2.98-2.94V34.5c0-1.64,1.34-2.97,2.98-2.97c1.64,0,2.97,1.34,2.97,2.98
	C22.32,36.15,20.99,37.48,19.35,37.48L19.35,37.48z M46.73,27.58c-0.07-3.07-0.77-3.69-3.4-6c-0.3-0.26-0.63-0.55-0.99-0.87
	c-0.24-0.21-0.48-0.44-0.74-0.68c-0.39-0.38-0.81-0.77-1.26-1.15l-1-0.84c-4.08-3.41-5.77-4.83-9.99-4.83H21.8
	c-0.6,0-1.09,0.49-1.09,1.09c0,0.6,0.49,1.09,1.09,1.09h7.56c3.42,0,4.52,0.91,8.58,4.31c0.32,0.27,0.65,0.55,1.01,0.84
	c0.4,0.33,0.78,0.7,1.16,1.05c0.26,0.24,0.51,0.49,0.78,0.73c0.37,0.32,0.69,0.61,0.99,0.88c0.58,0.51,1.04,0.91,1.39,1.24H27.71
	c-1.02-0.58-1.94-1.33-2.72-2.21c-0.85-0.81-1.63-1.69-2.33-2.63c-0.24-0.55-0.88-0.81-1.43-0.57c-0.55,0.24-0.81,0.88-0.57,1.43
	c0.82,1.24,1.78,2.38,2.87,3.39c2.81,2.77,3.74,2.77,4.12,2.77h16.84c0.03,0.28,0.04,0.61,0.05,1.01c0.01,0.57,0.01,1.79,0,2.68
	v0.62c0,0.46-0.01,0.99-0.01,1.64c-0.01,0.18-0.08,0.35-0.21,0.47c-0.82-2.72-3.68-4.25-6.4-3.44c-2.72,0.82-4.25,3.68-3.44,6.4
	c0.82,2.72,3.68,4.25,6.4,3.44c1.85-0.56,3.23-2.11,3.57-4.01c1.3-0.36,2.22-1.51,2.27-2.86v-2.25
	C46.74,29.36,46.75,28.18,46.73,27.58L46.73,27.58z M42.35,34.53c0,1.63-1.33,2.95-2.96,2.94c-1.63,0-2.95-1.33-2.94-2.96
	s1.33-2.95,2.96-2.94c1.62,0,2.94,1.32,2.94,2.94V34.53z M20.44,34.53c0.01,0.61-0.48,1.1-1.09,1.11c-0.61,0.01-1.1-0.48-1.11-1.09
	c-0.01-0.61,0.48-1.1,1.09-1.11c0,0,0.01,0,0.01,0l0,0C19.95,33.44,20.44,33.92,20.44,34.53L20.44,34.53z M17.61,19.59
	c-1.27,1.3-3.94,2.11-6.95,2.11s-5.68-0.81-6.95-2.11c-0.42-0.43-0.41-1.11,0.02-1.53c0,0,0,0,0.01-0.01
	c0.43-0.42,1.12-0.4,1.54,0.02c0.68,0.7,2.66,1.45,5.38,1.45s4.69-0.75,5.38-1.45c0.42-0.43,1.11-0.44,1.54-0.02
	C18.01,18.47,18.02,19.15,17.61,19.59C17.61,19.58,17.61,19.59,17.61,19.59L17.61,19.59z"/>
</svg>
